<svg xmlns="http://www.w3.org/2000/svg" viewBox="0 0 24 24">
    <path fill-rule="evenodd" clip-rule="evenodd" d="M12.114 0C5.415 0 0 5.455 0 12.204c0 5.395 3.47 9.961 8.283 11.577.602.121.822-.262.822-.585 0-.284-.02-1.252-.02-2.263-3.37.728-4.071-1.455-4.071-1.455C4.472 18.064 3.67 17.7 3.67 17.7c-1.103-.748.08-.748.08-.748 1.223.081 1.865 1.252 1.865 1.252 1.082 1.859 2.828 1.333 3.53 1.01.1-.788.421-1.333.762-1.636-2.688-.284-5.515-1.333-5.515-6.021 0-1.333.481-2.425 1.243-3.273-.12-.303-.542-1.556.12-3.233 0 0 1.023-.323 3.329 1.252a11.647 11.647 0 0 1 3.028-.404c1.023 0 2.066.142 3.028.404 2.306-1.576 3.329-1.252 3.329-1.252.662 1.677.241 2.93.12 3.233.782.848 1.243 1.94 1.243 3.273 0 4.688-2.828 5.718-5.535 6.021.441.384.822 1.111.822 2.263 0 1.636-.02 2.95-.02 3.353 0 .323.221.708.822.586a12.195 12.195 0 0 0 8.283-11.578C24.227 5.455 18.792 0 12.114 0z" fill="#fff"/>
</svg>
