<svg xmlns="http://www.w3.org/2000/svg" viewBox="0 0 24 24">
    <path fill-rule="evenodd" clip-rule="evenodd" d="M12.114 0C5.415 0 0 5.455 0 12.204c0 5.395 3.47 9.961 8.283 11.577.602.121.822-.263.822-.586 0-.283-.02-1.253-.02-2.263-3.37.728-4.071-1.455-4.071-1.455-.542-1.414-1.344-1.778-1.344-1.778-1.103-.748.08-.748.08-.748 1.223.081 1.865 1.253 1.865 1.253 1.083 1.859 2.828 1.334 3.53 1.01.1-.788.421-1.334.762-1.637-2.688-.283-5.515-1.334-5.515-6.021 0-1.334.481-2.425 1.243-3.273-.12-.303-.542-1.556.121-3.233 0 0 1.023-.323 3.329 1.253a11.647 11.647 0 0 1 3.029-.404c1.023 0 2.066.142 3.028.404 2.307-1.576 3.329-1.253 3.329-1.253.662 1.677.241 2.93.12 3.233.782.849 1.244 1.94 1.244 3.273 0 4.688-2.828 5.718-5.535 6.021.441.384.822 1.111.822 2.263 0 1.637-.02 2.95-.02 3.354 0 .323.221.707.822.586a12.195 12.195 0 0 0 8.283-11.577C24.227 5.455 18.792 0 12.114 0z" fill="#24292f"/>
</svg>
